# xmcd CD database file
#
# Track frame offsets:
#	183
#	19170
#	41863
#	66578
#	80940
#	105143
#	119580
#	131078
#	146563
#	165393
#	181560
#	194798
#
# Disc length: 2794 seconds
#
# Revision: 0
# Processed by: cddbd v1.5.1PL0 Copyright (c) Steve Scherf et al.
# Submitted via: Feurio! 1.65 - http://www.feurio.com
#
DISCID=af0ae80c
DTITLE=Sarasota Slim - Bourbon To Beale
DYEAR=1991
DGENRE=Blues Rock
TTITLE0=Bourbon To Beale
TTITLE1=Tin Pan Alley
TTITLE2=Things Ain't Going Right
TTITLE3=Light My Fuse
TTITLE4=Siesta Salsa
TTITLE5=Mistakes In The Game Of Love
TTITLE6=Cryin' For My Baby
TTITLE7=Go Underground
TTITLE8=I've Got Friends
TTITLE9=Last Night
TTITLE10=Diving Duck
TTITLE11=Party All Night
EXTD=Appaloosa, 1991
EXTT0=
EXTT1=
EXTT2=
EXTT3=
EXTT4=
EXTT5=
EXTT6=
EXTT7=
EXTT8=
EXTT9=
EXTT10=
EXTT11=
PLAYORDER=
